<svg width="66" height="49" viewBox="0 0 66 49" fill="none" xmlns="http://www.w3.org/2000/svg">
<g id="Badge" filter="url(#filter0_dd_92_517)">
<rect x="9.83838" y="5.30212" width="46.6143" height="30.0304" rx="5.37857" fill="white"/>
<rect x="9.72633" y="5.19007" width="46.8384" height="30.2545" rx="5.49062" stroke="#D6DCE5" stroke-width="0.224107"/>
<g id="&#239;&#163;&#191; Pay">
<path d="M24.9166 16.0816C25.2276 15.6926 25.4386 15.1703 25.383 14.6366C24.9277 14.6592 24.3722 14.9369 24.0506 15.3262C23.7618 15.6596 23.5062 16.2038 23.5728 16.7151C24.0838 16.7594 24.5944 16.4597 24.9166 16.0816Z" fill="#000008"/>
<path d="M25.3772 16.8149C24.635 16.7707 24.004 17.2362 23.6496 17.2362C23.295 17.2362 22.7523 16.8372 22.1653 16.848C21.4012 16.8592 20.6923 17.2912 20.3046 17.9782C19.5072 19.3527 20.0942 21.3915 20.8696 22.5109C21.2462 23.0647 21.7001 23.6745 22.2981 23.6526C22.8631 23.6304 23.0846 23.2867 23.7714 23.2867C24.4577 23.2867 24.6572 23.6526 25.2554 23.6415C25.8756 23.6304 26.2634 23.0874 26.64 22.5331C27.072 21.9018 27.2489 21.2922 27.26 21.2587C27.2489 21.2476 26.0639 20.7931 26.053 19.43C26.0418 18.2887 26.9832 17.7459 27.0276 17.7122C26.4959 16.9259 25.6652 16.8372 25.3772 16.8149Z" fill="#000008"/>
<path d="M31.8392 15.2704C33.4523 15.2704 34.5755 16.3823 34.5755 18.0011C34.5755 19.6257 33.4292 20.7434 31.7988 20.7434H30.0128V23.5836H28.7225V15.2704L31.8392 15.2704ZM30.0128 19.6603H31.4934C32.6169 19.6603 33.2563 19.0555 33.2563 18.0069C33.2563 16.9585 32.6169 16.3593 31.4992 16.3593H30.0128V19.6603Z" fill="#000008"/>
<path d="M34.9127 21.8611C34.9127 20.801 35.725 20.15 37.1653 20.0693L38.8244 19.9714V19.5048C38.8244 18.8308 38.3692 18.4275 37.6089 18.4275C36.8886 18.4275 36.4393 18.7731 36.3299 19.3147H35.1547C35.2238 18.22 36.157 17.4135 37.6549 17.4135C39.124 17.4135 40.063 18.1912 40.063 19.4068V23.5836H38.8704V22.5869H38.8417C38.4904 23.261 37.7241 23.6873 36.9291 23.6873C35.7423 23.6873 34.9127 22.9499 34.9127 21.8611ZM38.8244 21.3138V20.8356L37.3322 20.9278C36.589 20.9797 36.1686 21.308 36.1686 21.8265C36.1686 22.3565 36.6064 22.7022 37.2747 22.7022C38.1445 22.7022 38.8244 22.103 38.8244 21.3138Z" fill="#000008"/>
<path d="M41.1889 25.8132V24.8049C41.2809 24.8279 41.4882 24.8279 41.592 24.8279C42.1681 24.8279 42.4792 24.586 42.6692 23.9639C42.6692 23.9523 42.7788 23.5951 42.7788 23.5894L40.5897 17.523H41.9376L43.4702 22.4545H43.4931L45.0257 17.523H46.3392L44.0692 23.9004C43.5509 25.3696 42.9517 25.8419 41.6958 25.8419C41.592 25.8419 41.2809 25.8304 41.1889 25.8132Z" fill="#000008"/>
</g>
</g>
<defs>
<filter id="filter0_dd_92_517" x="0.649972" y="0.59586" width="64.9911" height="48.4072" filterUnits="userSpaceOnUse" color-interpolation-filters="sRGB">
<feFlood flood-opacity="0" result="BackgroundImageFix"/>
<feColorMatrix in="SourceAlpha" type="matrix" values="0 0 0 0 0 0 0 0 0 0 0 0 0 0 0 0 0 0 127 0" result="hardAlpha"/>
<feOffset dy="0.448214"/>
<feGaussianBlur stdDeviation="2.24107"/>
<feColorMatrix type="matrix" values="0 0 0 0 0.717647 0 0 0 0 0.717647 0 0 0 0 0.717647 0 0 0 0.08 0"/>
<feBlend mode="normal" in2="BackgroundImageFix" result="effect1_dropShadow_92_517"/>
<feColorMatrix in="SourceAlpha" type="matrix" values="0 0 0 0 0 0 0 0 0 0 0 0 0 0 0 0 0 0 127 0" result="hardAlpha"/>
<feOffset dy="4.48214"/>
<feGaussianBlur stdDeviation="4.48214"/>
<feColorMatrix type="matrix" values="0 0 0 0 0.717647 0 0 0 0 0.717647 0 0 0 0 0.717647 0 0 0 0.08 0"/>
<feBlend mode="normal" in2="effect1_dropShadow_92_517" result="effect2_dropShadow_92_517"/>
<feBlend mode="normal" in="SourceGraphic" in2="effect2_dropShadow_92_517" result="shape"/>
</filter>
</defs>
</svg>
