<svg width="66" height="49" viewBox="0 0 66 49" fill="none" xmlns="http://www.w3.org/2000/svg">
<g id="Badge" filter="url(#filter0_dd_92_519)">
<rect x="9.45264" y="5.30212" width="46.6143" height="30.0304" rx="5.37857" fill="white"/>
<rect x="9.34058" y="5.19007" width="46.8384" height="30.2545" rx="5.49062" stroke="#D6DCE5" stroke-width="0.224107"/>
<g id="G Pay">
<path d="M31.7471 23.6142H30.6986V15.4559H33.4781C34.1825 15.4559 34.7832 15.6907 35.2746 16.1604C35.777 16.63 36.0282 17.2033 36.0282 17.8805C36.0282 18.574 35.777 19.1473 35.2746 19.6115C34.7886 20.0757 34.188 20.305 33.4781 20.305H31.7471V23.6142ZM31.7471 16.4607V19.3057H33.4999C33.9149 19.3057 34.2644 19.1637 34.5374 18.8852C34.8159 18.6067 34.9579 18.2682 34.9579 17.8859C34.9579 17.5091 34.8159 17.176 34.5374 16.8975C34.2644 16.6081 33.9204 16.4662 33.4999 16.4662H31.7471V16.4607Z" fill="#3C4043"/>
<path d="M38.7693 17.8477C39.5448 17.8477 40.1563 18.0552 40.6041 18.4702C41.0519 18.8852 41.2758 19.4531 41.2758 20.174V23.6142H40.2765V22.8388H40.2328C39.8014 23.4777 39.2226 23.7944 38.5018 23.7944C37.8847 23.7944 37.3714 23.6142 36.9564 23.2483C36.5414 22.8824 36.3339 22.4292 36.3339 21.8831C36.3339 21.3043 36.5523 20.8456 36.9892 20.5071C37.426 20.163 38.0103 19.9938 38.7366 19.9938C39.3591 19.9938 39.8724 20.1084 40.271 20.3378V20.0975C40.271 19.7316 40.129 19.4258 39.8396 19.1692C39.5502 18.9125 39.2117 18.7869 38.8239 18.7869C38.2397 18.7869 37.7755 19.0327 37.4369 19.5296L36.5141 18.9508C37.0219 18.2136 37.7755 17.8477 38.7693 17.8477ZM37.4151 21.8995C37.4151 22.1726 37.5298 22.4019 37.7646 22.5821C37.9939 22.7623 38.267 22.8551 38.5782 22.8551C39.0205 22.8551 39.4137 22.6913 39.7577 22.3637C40.1017 22.036 40.2765 21.6538 40.2765 21.2115C39.9488 20.9548 39.4956 20.8238 38.9113 20.8238C38.4854 20.8238 38.1304 20.9275 37.8465 21.1296C37.5571 21.3425 37.4151 21.5992 37.4151 21.8995Z" fill="#3C4043"/>
<path d="M46.9768 18.028L43.4819 26.0661H42.4007L43.7004 23.2538L41.396 18.028H42.5372L44.1973 22.0361H44.2191L45.8355 18.028H46.9768Z" fill="#3C4043"/>
<path d="M27.5767 19.6443C27.5767 19.3024 27.5461 18.9753 27.4893 18.6608H23.0946V20.4628L25.6256 20.4634C25.5229 21.063 25.1926 21.5741 24.6864 21.9148V23.084H26.193C27.0727 22.2698 27.5767 21.0662 27.5767 19.6443Z" fill="#4285F4"/>
<path d="M24.6869 21.9149C24.2675 22.1977 23.7275 22.3632 23.0957 22.3632C21.8752 22.3632 20.8399 21.5408 20.4691 20.4323H18.915V21.638C19.6849 23.1659 21.2674 24.2144 23.0957 24.2144C24.3593 24.2144 25.4208 23.7988 26.1935 23.0835L24.6869 21.9149Z" fill="#34A853"/>
<path d="M20.3227 19.5378C20.3227 19.2265 20.3746 18.9256 20.469 18.6428V17.4371H18.9149C18.5966 18.0689 18.4175 18.782 18.4175 19.5378C18.4175 20.2935 18.5971 21.0067 18.9149 21.6385L20.469 20.4328C20.3746 20.1499 20.3227 19.849 20.3227 19.5378Z" fill="#FABB05"/>
<path d="M23.0957 16.7119C23.7853 16.7119 24.4029 16.9494 24.8906 17.4136L26.2257 16.0795C25.4148 15.3243 24.3576 14.8607 23.0957 14.8607C21.268 14.8607 19.6849 15.9092 18.9149 17.4371L20.469 18.6428C20.8398 17.5343 21.8752 16.7119 23.0957 16.7119Z" fill="#E94235"/>
</g>
</g>
<defs>
<filter id="filter0_dd_92_519" x="0.26423" y="0.59586" width="64.9911" height="48.4072" filterUnits="userSpaceOnUse" color-interpolation-filters="sRGB">
<feFlood flood-opacity="0" result="BackgroundImageFix"/>
<feColorMatrix in="SourceAlpha" type="matrix" values="0 0 0 0 0 0 0 0 0 0 0 0 0 0 0 0 0 0 127 0" result="hardAlpha"/>
<feOffset dy="0.448214"/>
<feGaussianBlur stdDeviation="2.24107"/>
<feColorMatrix type="matrix" values="0 0 0 0 0.717647 0 0 0 0 0.717647 0 0 0 0 0.717647 0 0 0 0.08 0"/>
<feBlend mode="normal" in2="BackgroundImageFix" result="effect1_dropShadow_92_519"/>
<feColorMatrix in="SourceAlpha" type="matrix" values="0 0 0 0 0 0 0 0 0 0 0 0 0 0 0 0 0 0 127 0" result="hardAlpha"/>
<feOffset dy="4.48214"/>
<feGaussianBlur stdDeviation="4.48214"/>
<feColorMatrix type="matrix" values="0 0 0 0 0.717647 0 0 0 0 0.717647 0 0 0 0 0.717647 0 0 0 0.08 0"/>
<feBlend mode="normal" in2="effect1_dropShadow_92_519" result="effect2_dropShadow_92_519"/>
<feBlend mode="normal" in="SourceGraphic" in2="effect2_dropShadow_92_519" result="shape"/>
</filter>
</defs>
</svg>
