<svg width="66" height="49" viewBox="0 0 66 49" fill="none" xmlns="http://www.w3.org/2000/svg">
<g id="Badge" filter="url(#filter0_dd_92_513)">
<rect x="9.60986" y="5.30212" width="46.6143" height="30.0304" rx="5.37857" fill="white"/>
<rect x="9.49781" y="5.19007" width="46.8384" height="30.2545" rx="5.49062" stroke="#D6DCE5" stroke-width="0.224107"/>
<g id="Mastercard">
<path d="M36.2637 13.8484H29.4004V26.1819H36.2637V13.8484Z" fill="#FF5F00"/>
<path d="M29.8362 20.0151C29.8351 18.8273 30.1043 17.6548 30.6233 16.5864C31.1424 15.518 31.8977 14.5817 32.8321 13.8484C31.675 12.9389 30.2853 12.3732 28.8219 12.2162C27.3586 12.0591 25.8805 12.3169 24.5567 12.9602C23.233 13.6034 22.1169 14.6061 21.336 15.8537C20.5552 17.1013 20.1411 18.5434 20.1411 20.0151C20.1411 21.4869 20.5552 22.929 21.336 24.1766C22.1169 25.4241 23.233 26.4269 24.5567 27.0701C25.8805 27.7133 27.3586 27.9712 28.8219 27.8141C30.2853 27.657 31.675 27.0914 32.8321 26.1819C31.8977 25.4485 31.1424 24.5122 30.6234 23.4438C30.1043 22.3754 29.8351 21.2029 29.8362 20.0151Z" fill="#EB001B"/>
<path d="M45.5226 20.0151C45.5227 21.4869 45.1087 22.929 44.3279 24.1765C43.5471 25.4241 42.431 26.4268 41.1073 27.0701C39.7835 27.7133 38.3055 27.9712 36.8421 27.8141C35.3788 27.657 33.9892 27.0914 32.8321 26.1819C33.7656 25.4478 34.5204 24.5113 35.0393 23.4431C35.5583 22.3749 35.8279 21.2028 35.8279 20.0151C35.8279 18.8275 35.5583 17.6554 35.0393 16.5872C34.5204 15.5189 33.7656 14.5825 32.8321 13.8484C33.9892 12.9389 35.3788 12.3732 36.8421 12.2162C38.3055 12.0591 39.7835 12.3169 41.1073 12.9602C42.431 13.6034 43.5471 14.6062 44.3279 15.8537C45.1087 17.1013 45.5227 18.5434 45.5226 20.0151Z" fill="#F79E1B"/>
<path d="M44.7743 24.8756V24.6231H44.8761V24.5716H44.6168V24.6231H44.7187V24.8756H44.7743ZM45.2777 24.8756V24.5711H45.1982L45.1068 24.7805L45.0154 24.5711H44.9359V24.8756H44.992V24.6459L45.0777 24.8439H45.1359L45.2216 24.6454V24.8756H45.2777Z" fill="#F79E1B"/>
</g>
</g>
<defs>
<filter id="filter0_dd_92_513" x="0.421456" y="0.59586" width="64.9911" height="48.4072" filterUnits="userSpaceOnUse" color-interpolation-filters="sRGB">
<feFlood flood-opacity="0" result="BackgroundImageFix"/>
<feColorMatrix in="SourceAlpha" type="matrix" values="0 0 0 0 0 0 0 0 0 0 0 0 0 0 0 0 0 0 127 0" result="hardAlpha"/>
<feOffset dy="0.448214"/>
<feGaussianBlur stdDeviation="2.24107"/>
<feColorMatrix type="matrix" values="0 0 0 0 0.717647 0 0 0 0 0.717647 0 0 0 0 0.717647 0 0 0 0.08 0"/>
<feBlend mode="normal" in2="BackgroundImageFix" result="effect1_dropShadow_92_513"/>
<feColorMatrix in="SourceAlpha" type="matrix" values="0 0 0 0 0 0 0 0 0 0 0 0 0 0 0 0 0 0 127 0" result="hardAlpha"/>
<feOffset dy="4.48214"/>
<feGaussianBlur stdDeviation="4.48214"/>
<feColorMatrix type="matrix" values="0 0 0 0 0.717647 0 0 0 0 0.717647 0 0 0 0 0.717647 0 0 0 0.08 0"/>
<feBlend mode="normal" in2="effect1_dropShadow_92_513" result="effect2_dropShadow_92_513"/>
<feBlend mode="normal" in="SourceGraphic" in2="effect2_dropShadow_92_513" result="shape"/>
</filter>
</defs>
</svg>
