<svg width="66" height="49" viewBox="0 0 66 49" fill="none" xmlns="http://www.w3.org/2000/svg">
<g id="Badge" filter="url(#filter0_dd_92_515)">
<rect x="9.22412" y="5.30212" width="46.6143" height="30.0304" rx="5.37857" fill="white"/>
<rect x="9.11207" y="5.19007" width="46.8384" height="30.2545" rx="5.49062" stroke="#D6DCE5" stroke-width="0.224107"/>
<g id="Paypal">
<path fill-rule="evenodd" clip-rule="evenodd" d="M19.4212 15.646H16.7337C16.5498 15.646 16.3934 15.7796 16.3647 15.9611L15.2777 22.8518C15.2561 22.9879 15.3614 23.1104 15.4994 23.1104H16.7824C16.9663 23.1104 17.1227 22.9768 17.1514 22.7949L17.4446 20.9364C17.4728 20.7544 17.6296 20.6209 17.8132 20.6209H18.6639C20.4343 20.6209 21.4559 19.7643 21.7229 18.0669C21.8431 17.3243 21.728 16.7408 21.3801 16.332C20.9982 15.8835 20.3206 15.646 19.4212 15.646ZM19.7312 18.1627C19.5843 19.127 18.8475 19.127 18.135 19.127H17.7295L18.014 17.3261C18.0309 17.2174 18.1252 17.1372 18.2352 17.1372H18.4211C18.9064 17.1372 19.3643 17.1372 19.6008 17.4138C19.7418 17.5789 19.7851 17.824 19.7312 18.1627ZM27.4548 18.1318H26.1678C26.0581 18.1318 25.9634 18.212 25.9465 18.3209L25.8895 18.6808L25.7995 18.5504C25.5209 18.146 24.8997 18.0109 24.2796 18.0109C22.8573 18.0109 21.6427 19.0879 21.4061 20.5988C21.2832 21.3523 21.4579 22.0729 21.8855 22.5755C22.2777 23.0375 22.8389 23.2301 23.5065 23.2301C24.6524 23.2301 25.288 22.4933 25.288 22.4933L25.2305 22.8509C25.2089 22.9877 25.3142 23.1102 25.4513 23.1102H26.6106C26.795 23.1102 26.9505 22.9766 26.9796 22.7948L27.6752 18.3904C27.6972 18.2549 27.5922 18.1318 27.4548 18.1318ZM25.6608 20.6364C25.5366 21.3715 24.953 21.865 24.2088 21.865C23.8351 21.865 23.5363 21.7452 23.3447 21.5181C23.1545 21.2926 23.0821 20.9715 23.1426 20.614C23.2587 19.8851 23.852 19.3756 24.5849 19.3756C24.9503 19.3756 25.2474 19.4968 25.4431 19.726C25.6391 19.9574 25.717 20.2804 25.6608 20.6364ZM33.0157 18.1317H34.309C34.4901 18.1317 34.5958 18.3348 34.4929 18.4833L30.1915 24.6914C30.1218 24.792 30.0071 24.8518 29.8845 24.8518H28.5928C28.4109 24.8518 28.3047 24.6471 28.41 24.4982L29.7494 22.6078L28.3249 18.4279C28.2756 18.2826 28.3829 18.1317 28.5375 18.1317H29.8083C29.9734 18.1317 30.1191 18.24 30.1667 18.398L30.9227 20.9226L32.7065 18.2955C32.7764 18.1929 32.8924 18.1317 33.0157 18.1317Z" fill="#253B80"/>
<path fill-rule="evenodd" clip-rule="evenodd" d="M47.0382 22.8512L48.1412 15.8345C48.1581 15.7256 48.2525 15.6454 48.3621 15.645H49.6038C49.7409 15.645 49.8462 15.7679 49.8246 15.9039L48.7369 22.7943C48.7086 22.9762 48.5522 23.1098 48.3679 23.1098H47.259C47.1219 23.1098 47.0166 22.9872 47.0382 22.8512ZM38.5913 15.6454H35.9033C35.7198 15.6454 35.5634 15.779 35.5347 15.9605L34.4478 22.8512C34.4261 22.9872 34.5314 23.1098 34.6687 23.1098H36.0479C36.1761 23.1098 36.2857 23.0163 36.3058 22.8891L36.6142 20.9358C36.6425 20.7538 36.7993 20.6203 36.9828 20.6203H37.8331C39.6039 20.6203 40.6253 19.7637 40.8925 18.0663C41.013 17.3237 40.8972 16.7402 40.5495 16.3314C40.1678 15.8829 39.4907 15.6454 38.5913 15.6454ZM38.9014 18.1621C38.7548 19.1264 38.0179 19.1264 37.305 19.1264H36.8999L37.1848 17.3255C37.2017 17.2168 37.2952 17.1366 37.4056 17.1366H37.5915C38.0765 17.1366 38.5347 17.1366 38.7711 17.4132C38.9123 17.5783 38.9552 17.8234 38.9014 18.1621ZM46.6241 18.1312H45.3381C45.2275 18.1312 45.1337 18.2114 45.1171 18.3203L45.0602 18.6802L44.9698 18.5498C44.6912 18.1454 44.0704 18.0103 43.4502 18.0103C42.028 18.0103 40.8137 19.0873 40.5771 20.5981C40.4546 21.3517 40.6286 22.0723 41.0561 22.5748C41.4491 23.0369 42.0096 23.2294 42.6772 23.2294C43.823 23.2294 44.4584 22.4927 44.4584 22.4927L44.4012 22.8503C44.3795 22.9871 44.4848 23.1096 44.6228 23.1096H45.7816C45.9651 23.1096 46.1215 22.976 46.1502 22.7941L46.8462 18.3898C46.8675 18.2543 46.7622 18.1312 46.6241 18.1312ZM44.8303 20.6358C44.7069 21.3709 44.1226 21.8644 43.3782 21.8644C43.0053 21.8644 42.7059 21.7446 42.5141 21.5175C42.3238 21.292 42.2524 20.9709 42.3122 20.6134C42.4288 19.8845 43.0214 19.375 43.7543 19.375C44.1198 19.375 44.4168 19.4962 44.6127 19.7253C44.8094 19.9568 44.8873 20.2798 44.8303 20.6358Z" fill="#179BD7"/>
</g>
</g>
<defs>
<filter id="filter0_dd_92_515" x="0.0357141" y="0.59586" width="64.9911" height="48.4072" filterUnits="userSpaceOnUse" color-interpolation-filters="sRGB">
<feFlood flood-opacity="0" result="BackgroundImageFix"/>
<feColorMatrix in="SourceAlpha" type="matrix" values="0 0 0 0 0 0 0 0 0 0 0 0 0 0 0 0 0 0 127 0" result="hardAlpha"/>
<feOffset dy="0.448214"/>
<feGaussianBlur stdDeviation="2.24107"/>
<feColorMatrix type="matrix" values="0 0 0 0 0.717647 0 0 0 0 0.717647 0 0 0 0 0.717647 0 0 0 0.08 0"/>
<feBlend mode="normal" in2="BackgroundImageFix" result="effect1_dropShadow_92_515"/>
<feColorMatrix in="SourceAlpha" type="matrix" values="0 0 0 0 0 0 0 0 0 0 0 0 0 0 0 0 0 0 127 0" result="hardAlpha"/>
<feOffset dy="4.48214"/>
<feGaussianBlur stdDeviation="4.48214"/>
<feColorMatrix type="matrix" values="0 0 0 0 0.717647 0 0 0 0 0.717647 0 0 0 0 0.717647 0 0 0 0.08 0"/>
<feBlend mode="normal" in2="effect1_dropShadow_92_515" result="effect2_dropShadow_92_515"/>
<feBlend mode="normal" in="SourceGraphic" in2="effect2_dropShadow_92_515" result="shape"/>
</filter>
</defs>
</svg>
