<svg width="148" height="29" viewBox="0 0 148 29" fill="none" xmlns="http://www.w3.org/2000/svg">
<g id="Social">
<g id="1">
<g id="BG">
<circle cx="13.9956" cy="14.5059" r="14" fill="white"/>
<circle cx="13.9956" cy="14.5059" r="13.5" stroke="black" stroke-opacity="0.2"/>
</g>
<g id="logo-twitter 2">
<g id="Group">
<path id="Vector" d="M20.2027 11.489C19.7837 11.6752 19.3414 11.7916 18.8758 11.8614C19.3414 11.5821 19.7139 11.1398 19.8768 10.6044C19.4345 10.8604 18.9457 11.0467 18.4103 11.1631C17.9912 10.7208 17.386 10.4414 16.7342 10.4414C15.4771 10.4414 14.4528 11.4657 14.4528 12.7227C14.4528 12.909 14.4761 13.0719 14.5227 13.2349C12.6371 13.1418 10.9377 12.2339 9.79702 10.8371C9.61078 11.1863 9.49439 11.5588 9.49439 11.9778C9.49439 12.7693 9.89013 13.4677 10.5187 13.8867C10.1462 13.8634 9.79702 13.7703 9.47111 13.6074V13.6306C9.47111 14.748 10.2626 15.6792 11.3102 15.8887C11.1239 15.9353 10.9144 15.9585 10.7049 15.9585C10.5652 15.9585 10.4023 15.9353 10.2626 15.912C10.5652 16.8199 11.4033 17.4949 12.4043 17.4949C11.6128 18.1002 10.6351 18.4727 9.56423 18.4727C9.37799 18.4727 9.19176 18.4727 9.02881 18.4494C10.0531 19.1012 11.2403 19.4737 12.5439 19.4737C16.7574 19.4737 19.0621 15.9818 19.0621 12.9555C19.0621 12.8624 19.0621 12.746 19.0621 12.6529C19.5044 12.3503 19.9001 11.9545 20.2027 11.489Z" fill="black"/>
</g>
</g>
</g>
<g id="2">
<circle id="BG_2" cx="53.9956" cy="14.5059" r="14" fill="white"/>
<g id="logo-fb-simple 2">
<g id="Group_2">
<path id="Vector_2" d="M52.7043 20.8097V15.2561H50.8354V13.0918H52.7043V11.4957C52.7043 9.64338 53.8357 8.63477 55.488 8.63477C56.2795 8.63477 56.9598 8.69369 57.158 8.72003V10.6558L56.012 10.6563C55.1134 10.6563 54.9394 11.0833 54.9394 11.71V13.0918H57.0826L56.8035 15.2561H54.9394V20.8097H52.7043Z" fill="black" fill-opacity="0.7"/>
</g>
</g>
</g>
<g id="3">
<g id="BG_3">
<circle cx="93.9956" cy="14.5059" r="14" fill="white"/>
<circle cx="93.9956" cy="14.5059" r="13.5" stroke="black" stroke-opacity="0.2"/>
</g>
<g id="logo-instagram 1">
<g id="Group_3">
<path id="Vector_3" d="M93.9964 8.95307C95.8051 8.95307 96.0193 8.95984 96.7338 8.99242C97.1634 8.99768 97.5889 9.07656 97.9918 9.22565C98.2841 9.33834 98.5494 9.51097 98.7709 9.73242C98.9923 9.95388 99.165 10.2192 99.2777 10.5115C99.4267 10.9144 99.5056 11.3399 99.5109 11.7695C99.5431 12.484 99.5502 12.6982 99.5502 14.5069C99.5502 16.3156 99.5435 16.5298 99.5109 17.2444C99.5056 17.674 99.4267 18.0995 99.2777 18.5024C99.165 18.7946 98.9923 19.06 98.7709 19.2815C98.5494 19.5029 98.2841 19.6755 97.9918 19.7882C97.5889 19.9373 97.1634 20.0162 96.7338 20.0215C96.0196 20.0537 95.8054 20.0608 93.9964 20.0608C92.1873 20.0608 91.9731 20.054 91.2589 20.0215C90.8293 20.0162 90.4038 19.9373 90.0009 19.7882C89.7087 19.6755 89.4433 19.5029 89.2218 19.2815C89.0004 19.06 88.8278 18.7946 88.7151 18.5024C88.566 18.0995 88.4871 17.674 88.4818 17.2444C88.4496 16.5298 88.4425 16.3156 88.4425 14.5069C88.4425 12.6982 88.4493 12.484 88.4818 11.7695C88.4871 11.3399 88.566 10.9144 88.7151 10.5115C88.8278 10.2192 89.0004 9.95388 89.2218 9.73242C89.4433 9.51097 89.7087 9.33834 90.0009 9.22565C90.4038 9.07656 90.8293 8.99768 91.2589 8.99242C91.9735 8.96016 92.1877 8.95307 93.9964 8.95307ZM93.9964 7.73242C92.1577 7.73242 91.926 7.74016 91.2035 7.77307C90.6412 7.78425 90.0849 7.89071 89.5583 8.08791C89.1065 8.25812 88.6973 8.52486 88.3593 8.86952C88.0143 9.2077 87.7473 9.61713 87.577 10.0692C87.3798 10.5958 87.2734 11.1521 87.2622 11.7144C87.2299 12.4363 87.2222 12.6679 87.2222 14.5066C87.2222 16.3453 87.2299 16.5769 87.2628 17.2995C87.274 17.8618 87.3805 18.418 87.5777 18.9447C87.7478 19.3967 88.0145 19.8061 88.3593 20.1444C88.6975 20.4891 89.1069 20.7558 89.5589 20.926C90.0856 21.1232 90.6419 21.2296 91.2041 21.2408C91.9267 21.2731 92.1573 21.2815 93.997 21.2815C95.8367 21.2815 96.0673 21.2737 96.7899 21.2408C97.3522 21.2296 97.9084 21.1232 98.4351 20.926C98.8849 20.7516 99.2935 20.4852 99.6345 20.144C99.9756 19.8027 100.242 19.394 100.416 18.944C100.613 18.4174 100.719 17.8611 100.731 17.2989C100.763 16.5769 100.771 16.3453 100.771 14.5066C100.771 12.6679 100.763 12.4363 100.73 11.7137C100.719 11.1515 100.612 10.5952 100.415 10.0686C100.245 9.61654 99.9782 9.20712 99.6335 8.86887C99.2952 8.52414 98.8858 8.25739 98.4338 8.08726C97.9071 7.89006 97.3509 7.78361 96.7886 7.77242C96.0667 7.74016 95.8351 7.73242 93.9964 7.73242Z" fill="black"/>
<path id="Vector_4" d="M93.9978 11.0293C93.3097 11.0293 92.6372 11.2333 92.0651 11.6156C91.493 11.9978 91.0471 12.5411 90.7838 13.1768C90.5206 13.8124 90.4517 14.5119 90.5859 15.1867C90.7201 15.8615 91.0514 16.4813 91.5379 16.9678C92.0244 17.4543 92.6443 17.7856 93.3191 17.9199C93.9939 18.0541 94.6933 17.9852 95.329 17.7219C95.9646 17.4586 96.5079 17.0127 96.8902 16.4407C97.2724 15.8686 97.4765 15.196 97.4765 14.508C97.4765 13.5854 97.11 12.7006 96.4576 12.0482C95.8052 11.3958 94.9204 11.0293 93.9978 11.0293ZM93.9978 16.7661C93.5512 16.7661 93.1146 16.6336 92.7432 16.3855C92.3719 16.1374 92.0825 15.7847 91.9116 15.3721C91.7407 14.9595 91.6959 14.5055 91.7831 14.0675C91.8702 13.6295 92.0853 13.2271 92.4011 12.9113C92.7169 12.5955 93.1192 12.3805 93.5572 12.2933C93.9952 12.2062 94.4493 12.2509 94.8619 12.4218C95.2745 12.5927 95.6271 12.8822 95.8753 13.2535C96.1234 13.6248 96.2558 14.0614 96.2558 14.508C96.2558 15.1069 96.0179 15.6812 95.5944 16.1047C95.171 16.5282 94.5966 16.7661 93.9978 16.7661Z" fill="black"/>
<path id="Vector_5" d="M97.6132 11.7039C98.0622 11.7039 98.4261 11.34 98.4261 10.891C98.4261 10.4421 98.0622 10.0781 97.6132 10.0781C97.1642 10.0781 96.8003 10.4421 96.8003 10.891C96.8003 11.34 97.1642 11.7039 97.6132 11.7039Z" fill="black"/>
</g>
</g>
</g>
<g id="4">
<g id="BG_4">
<circle cx="133.996" cy="14.5059" r="14" fill="white"/>
<circle cx="133.996" cy="14.5059" r="13.5" stroke="black" stroke-opacity="0.2"/>
</g>
<g id="logo-github 1">
<g id="Group_4">
<path id="Vector_6" fill-rule="evenodd" clip-rule="evenodd" d="M134.602 7.73242C131.012 7.73242 128.123 10.6214 128.123 14.2123C128.123 17.0743 129.986 19.5042 132.55 20.3682C132.874 20.4222 132.982 20.2332 132.982 20.0442C132.982 19.8822 132.982 19.4772 132.982 18.9372C131.174 19.3422 130.796 18.0733 130.796 18.0733C130.499 17.3173 130.067 17.1283 130.067 17.1283C129.473 16.7233 130.121 16.7233 130.121 16.7233C130.769 16.7773 131.12 17.3983 131.12 17.3983C131.687 18.3973 132.631 18.1003 133.009 17.9383C133.063 17.5063 133.225 17.2363 133.414 17.0743C131.983 16.9123 130.472 16.3453 130.472 13.8613C130.472 13.1593 130.715 12.5653 131.147 12.1334C131.093 11.9714 130.85 11.3234 131.201 10.4054C131.201 10.4054 131.741 10.2434 132.982 11.0804C133.495 10.9454 134.062 10.8644 134.602 10.8644C135.142 10.8644 135.709 10.9454 136.222 11.0804C137.464 10.2434 138.004 10.4054 138.004 10.4054C138.355 11.2964 138.139 11.9444 138.058 12.1334C138.463 12.5923 138.733 13.1593 138.733 13.8613C138.733 16.3453 137.221 16.8853 135.763 17.0473C136.006 17.2363 136.195 17.6413 136.195 18.2353C136.195 19.0992 136.195 19.8012 136.195 20.0172C136.195 20.1792 136.303 20.3952 136.654 20.3412C139.219 19.5042 141.082 17.0743 141.082 14.2123C141.082 10.6214 138.193 7.73242 134.602 7.73242Z" fill="black"/>
</g>
</g>
</g>
</g>
</svg>
