<svg width="9" height="9" viewBox="0 0 9 9" fill="none" xmlns="http://www.w3.org/2000/svg">
<path id="Vector" d="M8.4375 4.21875C8.4375 5.05314 8.19008 5.86879 7.72651 6.56256C7.26295 7.25633 6.60407 7.79706 5.8332 8.11637C5.06232 8.43567 4.21407 8.51922 3.39571 8.35644C2.57736 8.19366 1.82565 7.79186 1.23565 7.20186C0.645642 6.61185 0.243845 5.86014 0.081064 5.04179C-0.0817174 4.22343 0.00182793 3.37518 0.321135 2.6043C0.640442 1.83343 1.18117 1.17455 1.87494 0.710987C2.56871 0.247424 3.38436 0 4.21875 0C5.33764 0 6.41069 0.444474 7.20186 1.23564C7.99303 2.02681 8.4375 3.09987 8.4375 4.21875Z" fill="black"/>
</svg>
